<?xml version="1.0" encoding="UTF-8" standalone="no"?>
<!DOCTYPE svg PUBLIC "-//W3C//DTD SVG 1.1//EN" "http://www.w3.org/Graphics/SVG/1.1/DTD/svg11.dtd">
<svg width="100%" height="100%" viewBox="0 0 2037 2037" version="1.1" xmlns="http://www.w3.org/2000/svg" xmlns:xlink="http://www.w3.org/1999/xlink" xml:space="preserve" xmlns:serif="http://www.serif.com/" style="fill-rule:evenodd;clip-rule:evenodd;stroke-linejoin:round;stroke-miterlimit:2;">
    <g transform="matrix(1,0,0,1,-41822.1,-15223)">
        <g id="Artboard3" transform="matrix(1,0,0,1,15247,-0.647523)">
            <rect x="26575.2" y="15223.6" width="2036.57" height="2036.57" style="fill:none;"/>
            <g transform="matrix(30.1221,0,0,30.1221,20606.3,3547.62)">
                <path d="M215.74,431.13L215.74,445.71C215.74,448.79 218.19,450.24 220.88,448.71C229.46,443.777 238.027,438.827 246.58,433.86C247.674,433.35 248.377,432.248 248.377,431.041C248.377,429.857 247.702,428.772 246.64,428.25C244.91,427.18 243.11,426.25 241.37,425.17C240.76,424.8 240.37,425.03 239.85,425.32C235.977,427.56 232.107,429.793 228.24,432.02C227.028,432.824 225.398,432.637 224.4,431.58C223.505,430.562 223.406,429.057 224.16,427.93C224.562,427.433 225.071,427.033 225.65,426.76L246.08,415C249.08,413.25 249.15,410.49 246.14,408.75C237.74,403.89 229.34,399.047 220.94,394.22C218.17,392.63 215.75,394.05 215.74,397.22L215.74,400.69C215.771,401.495 215.467,402.278 214.9,402.85C214.183,403.64 213.071,403.948 212.05,403.64C210.956,403.418 210.12,402.517 209.98,401.41C209.575,398.885 209.704,396.302 210.36,393.83C211.601,390.197 215.037,387.74 218.877,387.74C220.376,387.74 221.852,388.115 223.17,388.83C228.72,391.89 234.17,395.13 239.67,398.3C242.89,400.147 246.103,402.003 249.31,403.87C255.85,407.68 255.86,416.07 249.31,419.87C248.69,420.23 248.09,420.62 247.45,420.94C246.6,421.35 246.82,421.61 247.45,421.99C248.738,422.626 249.955,423.397 251.08,424.29C253.019,425.998 254.131,428.46 254.131,431.044C254.131,434.264 252.403,437.248 249.61,438.85C241.32,443.7 232.96,448.46 224.61,453.28C223.062,454.348 221.27,455.012 219.4,455.21C219.185,455.225 218.969,455.233 218.753,455.233C213.816,455.233 209.753,451.171 209.753,446.233C209.753,446.119 209.756,446.004 209.76,445.89C209.69,436.01 209.67,426.13 209.76,416.25C209.83,408.67 217.17,404.57 223.76,408.34C226.08,409.67 228.39,411.02 230.71,412.34C231.59,412.752 232.225,413.558 232.42,414.51C232.677,415.635 232.21,416.809 231.25,417.45C230.316,418.127 229.059,418.171 228.08,417.56C225.69,416.21 223.29,414.84 220.93,413.43C219.857,412.608 218.386,412.517 217.22,413.2C216.117,413.89 215.505,415.157 215.65,416.45C215.76,421.33 215.74,426.23 215.74,431.13Z" style="fill:rgb(0,223,255);fill-rule:nonzero;"/>
            </g>
        </g>
    </g>
</svg>
