<?xml version="1.0" encoding="UTF-8" standalone="no"?>
<!DOCTYPE svg PUBLIC "-//W3C//DTD SVG 1.1//EN" "http://www.w3.org/Graphics/SVG/1.1/DTD/svg11.dtd">
<svg width="100%" height="100%" viewBox="0 0 5206 2041" version="1.1" xmlns="http://www.w3.org/2000/svg" xmlns:xlink="http://www.w3.org/1999/xlink" xml:space="preserve" xmlns:serif="http://www.serif.com/" style="fill-rule:evenodd;clip-rule:evenodd;stroke-linejoin:round;stroke-miterlimit:2;">
    <g transform="matrix(1,0,0,1,-36105.3,-15223.6)">
        <g id="Artboard1" transform="matrix(2.09881,0,0,0.581578,36105.3,15223.6)">
            <rect x="0" y="0" width="2480.32" height="3507.87" style="fill:none;"/>
            <g transform="matrix(14.352,0,0,51.7938,-3009.61,-20076.5)">
                <path d="M215.74,431.13L215.74,445.71C215.74,448.79 218.19,450.24 220.88,448.71C229.46,443.777 238.027,438.827 246.58,433.86C247.674,433.35 248.377,432.248 248.377,431.041C248.377,429.857 247.702,428.772 246.64,428.25C244.91,427.18 243.11,426.25 241.37,425.17C240.76,424.8 240.37,425.03 239.85,425.32C235.977,427.56 232.107,429.793 228.24,432.02C227.028,432.824 225.398,432.637 224.4,431.58C223.505,430.562 223.406,429.057 224.16,427.93C224.562,427.433 225.071,427.033 225.65,426.76L246.08,415C249.08,413.25 249.15,410.49 246.14,408.75C237.74,403.89 229.34,399.047 220.94,394.22C218.17,392.63 215.75,394.05 215.74,397.22L215.74,400.69C215.771,401.495 215.467,402.278 214.9,402.85C214.183,403.64 213.071,403.948 212.05,403.64C210.956,403.418 210.12,402.517 209.98,401.41C209.575,398.885 209.704,396.302 210.36,393.83C211.601,390.197 215.037,387.74 218.877,387.74C220.376,387.74 221.852,388.115 223.17,388.83C228.72,391.89 234.17,395.13 239.67,398.3C242.89,400.147 246.103,402.003 249.31,403.87C255.85,407.68 255.86,416.07 249.31,419.87C248.69,420.23 248.09,420.62 247.45,420.94C246.6,421.35 246.82,421.61 247.45,421.99C248.738,422.626 249.955,423.397 251.08,424.29C253.019,425.998 254.131,428.46 254.131,431.044C254.131,434.264 252.403,437.248 249.61,438.85C241.32,443.7 232.96,448.46 224.61,453.28C223.062,454.348 221.27,455.012 219.4,455.21C219.185,455.225 218.969,455.233 218.753,455.233C213.816,455.233 209.753,451.171 209.753,446.233C209.753,446.119 209.756,446.004 209.76,445.89C209.69,436.01 209.67,426.13 209.76,416.25C209.83,408.67 217.17,404.57 223.76,408.34C226.08,409.67 228.39,411.02 230.71,412.34C231.59,412.752 232.225,413.558 232.42,414.51C232.677,415.635 232.21,416.809 231.25,417.45C230.316,418.127 229.059,418.171 228.08,417.56C225.69,416.21 223.29,414.84 220.93,413.43C219.857,412.608 218.386,412.517 217.22,413.2C216.117,413.89 215.505,415.157 215.65,416.45C215.76,421.33 215.74,426.23 215.74,431.13Z" style="fill:rgb(0,223,255);fill-rule:nonzero;"/>
            </g>
            <g transform="matrix(14.352,0,0,51.7938,-3009.61,-20076.5)">
                <path d="M279.93,406.84C281.23,407.811 281.889,409.427 281.64,411.03L281.64,413.18C281.64,413.183 281.64,413.187 281.64,413.19C281.64,416.021 279.311,418.35 276.48,418.35C276.477,418.35 276.473,418.35 276.47,418.35L267.98,418.35C267.29,418.35 266.93,418.24 266.98,417.45C267.02,416.694 267.02,415.936 266.98,415.18C266.98,414.66 266.98,414.18 267.69,414.27C268.16,414.27 268.11,413.89 268.11,413.58L268.11,400C268.11,399.77 268.11,399.49 267.89,399.37C267.67,399.25 266.96,399.43 266.98,398.72C266.98,397.64 266.98,396.57 267.05,395.5C267.05,395.18 267.5,395.25 267.76,395.25C270.76,395.25 273.76,395.17 276.76,395.25C279.465,395.372 281.623,397.632 281.62,400.34L281.62,402.34C281.63,404.74 281.5,405.09 279.93,406.84ZM272.3,402L272.3,403.79C272.3,404.38 272.42,404.79 273.2,404.79L275.72,404.79C275.747,404.791 275.774,404.792 275.801,404.792C276.722,404.792 277.481,404.034 277.481,403.112C277.481,403.098 277.48,403.084 277.48,403.07L277.48,401.63C277.48,399.82 276.95,399.31 275.12,399.3C272.3,399.27 272.3,399.27 272.3,402ZM272.3,411.57L272.3,413.57C272.3,414.08 272.46,414.28 272.98,414.26L275.72,414.26C275.727,414.26 275.733,414.26 275.74,414.26C276.695,414.26 277.48,413.475 277.48,412.52C277.48,412.517 277.48,412.513 277.48,412.51L277.48,411.2C277.48,409.34 276.95,408.81 275.07,408.8C272.3,408.82 272.3,408.82 272.31,411.6L272.3,411.57Z" style="fill:white;fill-rule:nonzero;"/>
            </g>
            <g transform="matrix(14.352,0,0,51.7938,-3009.61,-20076.5)">
                <path d="M267,436.05L267,425.54C267,424.78 267.18,424.54 268,424.54L280.69,424.54C281.49,424.54 281.69,424.77 281.69,425.54C281.69,428.59 281.69,428.59 278.69,428.59L272.1,428.59C271.39,428.59 271.1,428.74 271.15,429.51C271.21,430.7 271.15,431.9 271.15,433.09C271.15,433.81 271.32,434.09 272.07,434.09L277.82,434.09C278.51,434.09 278.82,434.22 278.82,435C278.87,438.14 278.9,438.14 275.82,438.14C274.66,438.14 273.5,438.19 272.35,438.14C271.49,438.14 271.11,438.28 271.18,439.24C271.255,440.392 271.255,441.548 271.18,442.7C271.13,443.49 271.38,443.7 272.18,443.7L280.56,443.7C281.56,443.7 281.74,444.02 281.73,444.92C281.73,447.77 281.73,447.77 278.89,447.77C275.37,447.77 271.89,447.72 268.35,447.77C267.25,447.77 267.05,447.44 267.07,446.43C267.05,442.89 267,439.47 267,436.05Z" style="fill:white;fill-rule:nonzero;"/>
            </g>
            <g transform="matrix(14.352,0,0,51.7938,-3009.61,-20076.5)">
                <path d="M345.08,410.05C345.41,407.8 345.75,405.59 346.08,403.37C346.41,401.15 346.38,401.04 348.75,401.04L349.59,401.04C350.14,401.04 350.37,401.14 350.27,401.78C349.397,407.04 348.55,412.303 347.73,417.57C347.64,418.13 347.43,418.36 346.82,418.38C344.38,418.46 344.38,418.49 343.69,416.17C343.36,415.08 343.02,413.99 342.69,412.91C342.16,412.97 342.21,413.38 342.12,413.65C341.82,414.55 341.57,415.47 341.31,416.39C340.73,418.39 339.93,418.81 337.89,418.39C337.45,418.29 337.41,418.03 337.36,417.72C336.487,412.387 335.613,407.053 334.74,401.72C334.66,401.23 334.84,401.05 335.3,401.08L335.66,401.08C338.58,401.03 338.59,401.03 339,403.88C339.327,405.638 339.544,407.415 339.65,409.2C339.65,409.43 339.52,409.8 339.98,409.82C340.44,409.84 340.28,409.57 340.38,409.36C341.03,408.08 341.38,406.68 341.86,405.36C342.03,404.94 341.95,404.22 342.51,404.2C343.07,404.18 343.02,404.91 343.17,405.32C343.64,406.63 344.04,407.96 344.5,409.32C344.56,409.5 344.53,409.89 345.08,410.05Z" style="fill:white;fill-rule:nonzero;"/>
            </g>
            <g transform="matrix(14.352,0,0,51.7938,-3009.61,-20076.5)">
                <path d="M291.39,439L291.39,434.58C291.385,434.499 291.383,434.418 291.383,434.336C291.383,432.142 293.188,430.336 295.383,430.336C295.438,430.336 295.494,430.338 295.55,430.34L299.38,430.34C299.408,430.339 299.435,430.339 299.463,430.339C301.613,430.339 303.383,432.109 303.383,434.259C303.383,434.309 303.382,434.36 303.38,434.41L303.38,440.02C303.38,440.75 303.17,441.02 302.44,441.02L296.57,441.02C296.06,441.02 295.32,440.66 295.25,441.71C295.17,443.13 295.46,443.86 296.49,443.88C297.52,443.9 298.97,444.46 299.58,442.88C299.68,442.6 299.98,442.72 300.21,442.78C300.817,442.978 301.439,443.129 302.07,443.23C303.26,443.34 303.39,443.97 303.07,444.95C302.676,446.467 301.326,447.556 299.76,447.62C298.165,447.715 296.565,447.715 294.97,447.62C292.929,447.493 291.325,445.765 291.35,443.72L291.35,439L291.39,439ZM297.47,437.16C298.03,437.07 298.89,437.47 299.31,436.97C299.73,436.47 299.52,435.6 299.4,434.91C299.275,434.426 298.83,434.089 298.33,434.1C297.894,434.075 297.456,434.075 297.02,434.1C295.52,434.1 295.34,434.43 295.24,436.1C295.15,437.61 296.17,437.1 296.9,437.17C297.09,437.181 297.28,437.181 297.47,437.17L297.47,437.16Z" style="fill:white;fill-rule:nonzero;"/>
            </g>
            <g transform="matrix(14.352,0,0,51.7938,-3009.61,-20076.5)">
                <path d="M375.76,440.57L375.76,446.78C375.76,447.38 375.6,447.78 374.96,447.61C374.06,447.43 372.96,448.16 372.27,446.98C372.15,446.78 371.92,446.98 371.75,447.08C370.1,448 368.32,447.73 366.62,447.42C365.021,447.048 363.861,445.641 363.8,444C363.74,442.924 363.74,441.846 363.8,440.77C363.9,438.776 365.516,437.165 367.51,437.07C368.51,437 369.58,437.07 370.62,437.07C371.09,437.07 371.86,437.43 371.86,436.46C371.86,435.49 372.11,434.46 370.94,434.31C369.77,434.16 368.34,433.51 367.61,435.18C367.524,435.368 367.302,435.457 367.11,435.38L364.32,434.68C363.85,434.56 363.9,434.2 363.92,433.82C364.032,432.077 365.419,430.664 367.16,430.52C368.868,430.325 370.592,430.325 372.3,430.52C374.339,430.739 375.868,432.543 375.75,434.59C375.78,436.51 375.76,438.54 375.76,440.57ZM369.76,443.89C371.6,443.89 371.84,443.6 371.93,441.89C372.04,440 370.67,440.89 369.93,440.73C369.655,440.69 369.375,440.69 369.1,440.73C369.069,440.728 369.038,440.727 369.007,440.727C368.289,440.727 367.697,441.318 367.697,442.037C367.697,442.118 367.705,442.2 367.72,442.28C367.69,443.58 368.06,443.89 369.72,443.89L369.76,443.89Z" style="fill:white;fill-rule:nonzero;"/>
            </g>
            <g transform="matrix(14.352,0,0,51.7938,-3009.61,-20076.5)">
                <path d="M320.48,409.64L320.48,405.11C320.476,405.042 320.475,404.975 320.475,404.907C320.475,402.881 322.095,401.192 324.12,401.11C325.747,400.98 327.383,400.98 329.01,401.11C330.979,401.183 332.569,402.8 332.61,404.77C332.785,408.068 332.785,411.372 332.61,414.67C332.513,416.771 330.712,418.424 328.61,418.34L324.42,418.34C324.389,418.341 324.358,418.341 324.327,418.341C322.182,418.341 320.417,416.576 320.417,414.431C320.417,414.384 320.418,414.337 320.42,414.29C320.46,412.74 320.48,411.19 320.48,409.64ZM324.36,409.64L324.36,413.1C324.348,413.171 324.342,413.244 324.342,413.316C324.342,414.029 324.929,414.616 325.642,414.616C325.729,414.616 325.815,414.607 325.9,414.59L327.21,414.59C328.35,414.65 328.81,414.04 328.81,413L328.81,406.45C328.823,406.372 328.829,406.293 328.829,406.215C328.829,405.425 328.179,404.775 327.389,404.775C327.299,404.775 327.209,404.783 327.12,404.8L325.8,404.8C325.759,404.796 325.718,404.794 325.677,404.794C324.947,404.794 324.347,405.395 324.347,406.124C324.347,406.186 324.351,406.248 324.36,406.31C324.37,407.42 324.36,408.53 324.36,409.64Z" style="fill:white;fill-rule:nonzero;"/>
            </g>
            <g transform="matrix(14.352,0,0,51.7938,-3009.61,-20076.5)">
                <path d="M296.52,403.85L296.52,417.42C296.52,418.14 296.33,418.48 295.59,418.36L295.47,418.36C294.47,418.1 293.2,418.98 292.4,417.7C291.412,418.218 290.305,418.467 289.19,418.42C286.25,418.35 284.67,416.81 284.66,413.9L284.66,402.08C284.66,401.23 284.92,401.02 285.74,401.03C288.55,401.03 288.55,401.03 288.55,403.81L288.55,412.81C288.55,414.38 288.85,414.63 290.62,414.63C292.39,414.63 292.62,414.36 292.62,412.77L292.62,402.14C292.62,401.3 292.87,401.06 293.7,401.07C296.52,401.07 296.52,401.07 296.52,403.85Z" style="fill:white;fill-rule:nonzero;"/>
            </g>
            <g transform="matrix(14.352,0,0,51.7938,-3009.61,-20076.5)">
                <path d="M359,409.67C359,407.2 359.05,404.73 359,402.26C359,401.26 359.31,400.91 360.28,401.03C360.75,401.09 361.33,400.87 361.7,401.03C363.24,401.87 364.7,400.96 366.22,401.03C369.33,401.09 370.85,402.58 370.85,405.68L370.85,417.27C370.85,418.04 370.74,418.39 369.85,418.38C366.98,418.38 366.98,418.38 366.98,415.55L366.98,406.55C366.98,405.08 366.6,404.76 364.98,404.76C363.36,404.76 362.92,405.07 362.92,406.5L362.92,417.26C362.92,418.07 362.73,418.35 361.87,418.34C359.02,418.34 359.02,418.34 359.02,415.48L359,409.67Z" style="fill:white;fill-rule:nonzero;"/>
            </g>
            <g transform="matrix(14.352,0,0,51.7938,-3009.61,-20076.5)">
                <path d="M306.21,438.92L306.21,434.75C306.27,431.87 307.83,430.36 310.7,430.34L314.53,430.34C316.435,430.359 318.065,431.76 318.37,433.64C318.45,434.18 318.37,434.47 317.79,434.64C316.93,434.83 316.08,435.04 315.23,435.26C314.942,435.404 314.586,435.287 314.44,435C313.42,434.084 311.962,433.828 310.69,434.34C310.258,434.644 310.03,435.166 310.1,435.69L310.1,442.37C310.1,443.37 310.63,443.95 311.64,443.91C312.65,443.87 314.04,444.36 314.64,442.81C314.73,442.56 315.06,442.7 315.29,442.81C316.02,443 316.74,443.23 317.49,443.35C318.24,443.47 318.59,443.91 318.34,444.75C317.908,446.423 316.416,447.62 314.69,447.68C313.18,447.74 311.69,447.74 310.14,447.68C308.134,447.725 306.436,446.135 306.35,444.13C306.22,442.43 306.21,438.92 306.21,438.92Z" style="fill:white;fill-rule:nonzero;"/>
            </g>
            <g transform="matrix(14.352,0,0,51.7938,-3009.61,-20076.5)">
                <path d="M349,438.89L349,434.48C348.996,434.405 348.993,434.329 348.993,434.253C348.993,432.108 350.758,430.343 352.903,430.343C352.979,430.343 353.055,430.346 353.13,430.35L357.19,430.35C359.047,430.349 360.672,431.641 361.09,433.45C361.23,434.1 361.09,434.52 360.38,434.65C359.83,434.74 359.29,434.9 358.75,435.04C358.21,435.18 357.55,435.49 356.91,434.58C356.27,433.67 354.83,434.05 353.76,434.2C352.85,434.32 352.83,435.2 352.82,435.91L352.82,442C352.82,442.74 352.82,443.54 353.82,443.81C355.06,444.15 356.68,443.88 357.16,443.2C357.16,443.14 357.16,443.02 357.25,442.99C358.49,442.33 359.53,443.28 360.66,443.44C361.39,443.53 361.15,444.14 361.06,444.58C360.718,446.238 359.299,447.471 357.61,447.58C355.945,447.674 354.275,447.674 352.61,447.58C350.564,447.478 348.957,445.727 349.03,443.68C349,442.07 349,440.48 349,438.89Z" style="fill:white;fill-rule:nonzero;"/>
            </g>
            <g transform="matrix(14.352,0,0,51.7938,-3009.61,-20076.5)">
                <path d="M325.61,438.83L325.61,442.29C325.61,443.44 326.15,443.85 327.21,443.9C329.62,444 329.57,444.02 329.63,446.47C329.63,447.47 329.35,447.72 328.43,447.64C327.51,447.56 326.67,447.64 325.8,447.64C325.755,447.642 325.71,447.642 325.665,447.642C323.515,447.642 321.745,445.873 321.745,443.722C321.745,443.658 321.747,443.594 321.75,443.53L321.75,435.41C321.75,434.74 321.83,434.06 320.81,434.23L320.69,434.23C319.74,433.36 320.46,432.23 320.26,431.23C320.17,430.8 320.26,430.39 320.85,430.46C321.76,430.58 321.75,430.02 321.75,429.37C321.75,426.94 321.75,426.94 324.14,426.37C325.62,425.99 325.61,425.99 325.62,427.46C325.62,428.41 325.33,429.61 325.79,430.24C326.25,430.87 327.58,430.44 328.51,430.46C329.19,430.46 329.38,430.67 329.39,431.35C329.39,434.2 329.45,434.23 326.68,434.21C325.85,434.21 325.55,434.42 325.6,435.27C325.66,436.44 325.61,437.64 325.61,438.83Z" style="fill:white;fill-rule:nonzero;"/>
            </g>
            <g transform="matrix(14.352,0,0,51.7938,-3009.61,-20076.5)">
                <path d="M284.67,436L284.67,425.61C284.67,424.87 284.81,424.61 285.67,424.61C288.59,424.61 288.59,424.61 288.59,427.51L288.59,446.39C288.59,447.39 288.44,447.78 287.31,447.74C284.7,447.65 284.7,447.74 284.7,445.13L284.67,436Z" style="fill:white;fill-rule:nonzero;"/>
            </g>
            <g transform="matrix(14.352,0,0,51.7938,-3009.61,-20076.5)">
                <path d="M378.61,436L378.61,425.5C378.61,424.74 378.78,424.5 379.61,424.5C382.52,424.5 382.52,424.5 382.52,427.38L382.52,446.48C382.52,447.35 382.35,447.64 381.42,447.63C378.64,447.63 378.64,447.63 378.64,444.84L378.61,436Z" style="fill:white;fill-rule:nonzero;"/>
            </g>
            <g transform="matrix(14.352,0,0,51.7938,-3009.61,-20076.5)">
                <path d="M309.89,415.49L309.89,402.08C309.89,401.22 310.17,400.96 310.98,401.03C311.62,401.09 312.26,401.03 312.89,401.03L313.47,401.03C314.04,402.48 314.72,401.2 315.32,401.09C316.44,400.89 317.85,400.53 318.48,401.39C319.11,402.25 318.15,403.53 318,404.65C318,404.88 317.77,404.95 317.55,404.89C317.396,404.844 317.239,404.807 317.08,404.78C314,404.59 313.71,404.78 313.76,407.66C313.82,410.88 313.76,414.1 313.76,417.32C313.76,418.11 313.53,418.32 312.76,418.32C309.89,418.32 309.89,418.32 309.89,415.49Z" style="fill:white;fill-rule:nonzero;"/>
            </g>
            <g transform="matrix(14.352,0,0,51.7938,-3009.61,-20076.5)">
                <path d="M303.22,402.17C304.208,401.179 305.625,400.741 307,401C307.199,401.002 307.395,401.054 307.57,401.15C308.79,402.03 307.57,402.97 307.57,403.88C307.57,404.27 307.69,405.19 306.68,404.88C306.528,404.832 306.369,404.808 306.21,404.81C303.64,404.74 303.12,404.76 303.21,407.53C303.29,410.8 303.21,414.06 303.21,417.33C303.21,418.19 302.94,418.38 302.12,418.38C299.32,418.38 299.32,418.38 299.32,415.6L299.32,402.1C299.32,401.26 299.56,400.95 300.4,401.03C301.035,401.085 301.675,401.085 302.31,401.03C303,401 303.35,401.17 303.22,402.17Z" style="fill:white;fill-rule:nonzero;"/>
            </g>
            <g transform="matrix(14.352,0,0,51.7938,-3009.61,-20076.5)">
                <path d="M335.55,431.55C336.567,430.457 338.1,429.997 339.55,430.35C340.3,430.44 340.77,430.75 340.38,431.61L340.38,431.73C340.19,432.5 340.21,433.46 339.75,433.99C339.29,434.52 338.27,433.99 337.5,434.07C335.98,434.16 335.61,434.47 335.61,436.01L335.61,446.62C335.61,447.38 335.44,447.62 334.61,447.62C331.71,447.62 331.71,447.62 331.71,444.82L331.71,431.7C331.71,430.52 332.06,430.15 333.18,430.31C333.695,430.37 334.215,430.37 334.73,430.31C335.37,430.28 335.7,430.51 335.55,431.55Z" style="fill:white;fill-rule:nonzero;"/>
            </g>
            <g transform="matrix(14.352,0,0,51.7938,-3009.61,-20076.5)">
                <path d="M356.17,409.79L356.17,417.42C356.17,418.14 355.98,418.37 355.24,418.42C352.24,418.42 352.24,418.49 352.24,415.57L352.24,402.22C352.24,401.36 352.41,401.05 353.35,401.06C356.13,401.06 356.13,401.06 356.13,403.87L356.17,409.79Z" style="fill:white;fill-rule:nonzero;"/>
            </g>
            <g transform="matrix(14.352,0,0,51.7938,-3009.61,-20076.5)">
                <path d="M342.29,438.84L342.29,431.43C342.29,430.65 342.42,430.31 343.29,430.32C346.09,430.32 346.09,430.32 346.09,433.11L346.09,446.6C346.09,447.34 345.95,447.6 345.09,447.6C342.22,447.6 342.22,447.65 342.22,444.75L342.29,438.84Z" style="fill:white;fill-rule:nonzero;"/>
            </g>
            <g transform="matrix(14.352,0,0,51.7938,-3009.61,-20076.5)">
                <path d="M354.23,395.23C356.17,395.23 356.18,395.23 356.18,397.23L356.18,398.3C356.18,399.36 355.37,399.1 354.91,398.99C354.04,398.79 352.82,399.77 352.32,398.31C352.265,397.955 352.265,397.595 352.32,397.24C352.3,395.23 352.3,395.23 354.23,395.23Z" style="fill:white;fill-rule:nonzero;"/>
            </g>
            <g transform="matrix(14.352,0,0,51.7938,-3009.61,-20076.5)">
                <path d="M346.11,426.4C346.11,428.28 346.11,428.28 343.76,428.28C342.29,428.28 342.29,428.28 342.29,425.99C342.29,424.54 342.29,424.54 344.71,424.54C346.11,424.55 346.11,424.55 346.11,426.4Z" style="fill:white;fill-rule:nonzero;"/>
            </g>
        </g>
    </g>
</svg>
