<svg xmlns="http://www.w3.org/2000/svg" xml:space="preserve" fill-rule="evenodd" stroke-linejoin="round" stroke-miterlimit="2" clip-rule="evenodd" version="1.1" viewBox="0 0 5206 2041"><g transform="scale(2.09881 .58158)"><path d="M0 0h2480.32v3507.87H0z" fill="none"/><clipPath id="a"><path d="M0 0h2480.32v3507.87H0z"/></clipPath><g fill-rule="nonzero" clip-path="url(#a)"><path d="M86.69 2253.405v755.154c0 159.525 35.162 234.626 73.769 155.381a218333.782 218333.782 0 0 0 368.846-769.138c15.701-26.414 25.79-83.491 25.79-146.006 0-61.324-9.687-117.52-24.929-144.557-24.829-55.42-50.662-103.587-75.635-159.525-8.755-19.163-14.352-7.25-21.815 7.77a231012.037 231012.037 0 0 1-166.627 347.018c-17.394 41.642-40.788 31.957-55.111-22.79-12.845-52.726-14.266-130.675-3.445-189.047 5.77-25.741 13.075-46.459 21.385-60.599l293.211-609.095c43.056-90.639 44.06-233.59.861-323.711a313884.72 313884.72 0 0 0-361.67-752.564c-39.755-82.352-74.487-8.805-74.63 155.382v179.724c.444 41.694-3.919 82.249-12.056 111.875-10.29 40.917-26.25 56.87-40.903 40.917-15.702-11.498-27.7-58.165-29.71-115.5C-1.79 583.314.062 449.53 9.477 321.497 27.286 133.33 76.6 6.072 131.712 6.072c21.513 0 42.697 19.423 61.613 56.456 79.653 158.489 157.872 326.3 236.808 490.487a55379.653 55379.653 0 0 1 138.353 288.491c93.862 197.335 94.006 631.885 0 828.701-8.898 18.646-17.51 38.845-26.695 55.42-12.199 21.235-9.041 34.701 0 54.383 18.486 32.94 35.952 72.874 52.098 119.126 27.829 88.464 43.788 215.98 43.788 349.815 0 166.776-24.8 321.329-64.885 404.302-118.978 251.2-238.961 497.739-358.8 747.385-22.217 55.316-47.936 89.707-74.774 99.962-3.086.777-6.186 1.191-9.286 1.191-70.856 0-129.168-210.386-129.168-466.144 0-5.904.043-11.86.1-17.765-1.004-511.723-1.291-1023.446 0-1535.168 1.005-392.597 106.349-604.952 200.928-409.69 33.297 68.886 66.45 138.808 99.747 207.176 12.63 21.339 21.743 63.085 24.542 112.392 3.688 58.268-3.014 119.074-16.792 152.274-13.405 35.065-31.445 37.343-45.496 5.697-34.301-69.921-68.746-140.879-102.617-213.908-15.4-42.574-36.511-47.288-53.246-11.913-15.83 35.738-24.613 101.36-22.532 168.33 1.578 252.754 1.291 506.544 1.291 760.333Z" fill="#05fefe"/><path d="M1007.944 995.334c18.658 50.292 28.116 133.99 24.542 217.016v111.875c0 146.628-33.426 267.256-74.056 267.256H836.438c-9.903 0-15.07-5.698-14.352-46.615.574-39.156.574-78.416 0-117.572 0-26.933 0-51.794 10.19-47.132 6.745 0 6.028-19.682 6.028-35.738v-703.36c0-11.912 0-26.415-3.158-32.63-3.157-6.215-13.347 3.108-13.06-33.666 0-55.937 0-111.356 1.005-166.776 0-16.574 6.458-12.948 10.19-12.948 43.055 0 86.111-4.144 129.167 0 38.823 6.319 69.794 123.373 69.751 263.63v103.588c.144 124.305-1.722 142.433-24.255 233.072ZM898.44 744.652v92.71c0 30.56 1.722 51.795 12.916 51.795h36.167a8.81 8.81 0 0 0 1.163.103c13.218 0 24.111-39.26 24.111-87.013 0-.726-.014-1.45-.014-2.176v-74.583c0-93.747-7.607-120.161-33.87-120.68-40.473-1.553-40.473-1.553-40.473 139.844Zm0 495.667v103.587c0 26.415 2.296 36.774 9.759 35.738h39.611c13.707 0 24.973-40.658 24.973-90.121v-68.368c0-96.337-7.607-123.787-34.588-124.305-39.755 1.036-39.755 1.036-39.612 145.022l-.143-1.553ZM822.373 2508.23v-544.352c0-39.363 2.583-51.794 14.352-51.794h182.127c11.481 0 14.352 11.913 14.352 51.794 0 157.971 0 157.971-43.056 157.971h-94.58c-10.19 0-14.352 7.77-13.634 47.65.86 61.635 0 123.788 0 185.422 0 37.292 2.44 51.794 13.204 51.794h82.524c9.902 0 14.352 6.733 14.352 47.132.717 162.633 1.148 162.633-43.056 162.633-16.649 0-33.297 2.59-49.802 0-12.343 0-17.796 7.251-16.792 56.973a4972.995 4972.995 0 0 1 0 179.207c-.717 40.917 2.87 51.793 14.352 51.793h120.27c14.352 0 16.935 16.574 16.792 63.189 0 147.612 0 147.612-40.76 147.612-50.519 0-100.464-2.59-151.27 0-15.787 0-18.657-17.092-18.37-69.404-.287-183.35-1.005-360.484-1.005-537.62Zm1120.604-1346.638c4.736-116.536 9.616-231 14.352-345.983 4.736-114.982 4.306-120.68 38.32-120.68h12.056c7.893 0 11.194 5.18 9.759 38.328a287854.616 287854.616 0 0 0-36.454 817.824c-1.292 29.005-4.306 40.917-13.06 41.953-35.02 4.144-35.02 5.698-44.922-114.464-4.736-56.455-9.616-112.91-14.352-168.848-7.607 3.108-6.89 24.343-8.18 38.328-4.306 46.614-7.894 94.264-11.626 141.915-8.324 103.587-19.806 125.34-49.084 103.587-6.315-5.18-6.889-18.645-7.606-34.702-12.53-276.216-25.073-552.484-37.603-828.7-1.148-25.38 1.436-34.702 8.038-33.148h5.166c41.908-2.59 42.052-2.59 47.936 145.022 4.693 91.054 7.807 183.091 9.329 275.543 0 11.913-1.866 31.077 4.736 32.112 6.602 1.036 4.305-12.948 5.74-23.825 9.33-66.296 14.353-138.807 21.242-207.175 2.44-21.753 1.291-59.045 9.328-60.08 8.038-1.037 7.32 36.773 9.473 58.008 6.745 67.85 12.486 136.736 19.088 207.176.861 9.322.43 29.522 8.324 37.809Zm-770.559 1499.43v-228.928c-.072-4.195-.1-8.39-.1-12.638 0-113.635 25.905-207.175 57.408-207.175.79 0 1.593.104 2.397.207h54.968c.402-.052.789-.052 1.19-.052 30.858 0 56.26 91.675 56.26 203.032 0 2.59-.014 5.231-.042 7.821v290.563c0 37.81-3.014 51.794-13.491 51.794h-84.246c-7.32 0-17.94-18.646-18.945 35.738-1.148 73.547 3.014 111.356 17.796 112.392 14.783 1.036 35.593 30.04 44.348-51.794 1.435-14.502 5.74-8.287 9.042-5.179 8.711 10.255 17.638 18.076 26.695 23.307 17.078 5.698 18.944 38.328 14.352 89.086-5.655 78.57-25.03 134.974-47.506 138.29-22.891 4.92-45.854 4.92-68.746 0-29.292-6.579-52.313-96.078-51.954-201.997v-244.467h.574Zm87.26-95.3c8.037-4.662 20.38 16.056 26.408-9.84 6.028-25.898 3.014-70.958 1.292-106.696-1.794-25.068-8.18-42.523-15.357-41.953a45.984 45.984 0 0 0-18.801 0c-21.528 0-24.111 17.092-25.547 103.587-1.291 78.21 13.348 51.794 23.825 55.42 2.727.57 5.453.57 8.18 0v-.518Zm1123.618 176.617v321.64c0 31.076-2.296 51.793-11.481 42.988-12.917-9.323-28.704 28.487-38.607-32.63-1.722-10.359-5.023 0-7.463 5.18-23.68 47.65-49.227 33.665-73.626 17.61-22.949-19.268-39.597-92.142-40.473-177.136a5417.159 5417.159 0 0 1 0-167.293c1.436-103.277 24.629-186.717 53.246-191.638 14.352-3.625 29.71 0 44.635 0 6.746 0 17.797 18.646 17.797-31.594s3.588-103.587-13.204-111.356c-16.792-7.77-37.315-41.435-47.792 45.06-1.235 9.737-4.42 14.347-7.176 10.359l-40.042-36.256c-6.746-6.215-6.028-24.86-5.741-44.542 1.607-90.277 21.513-163.462 46.5-170.92 24.513-10.1 49.256-10.1 73.77 0 29.263 11.343 51.207 104.779 49.514 210.8.43 99.445.143 204.586.143 309.728Zm-86.112 171.955c26.408 0 29.853-15.02 31.144-103.587 1.579-97.89-18.083-51.794-28.704-60.081-3.947-2.072-7.965-2.072-11.912 0a5.869 5.869 0 0 0-1.335-.156c-10.304 0-18.8 30.61-18.8 67.85 0 4.196.114 8.443.33 12.586-.431 67.332 4.879 83.388 28.703 83.388h.574Zm-707.266-1773.937V905.73a641.936 641.936 0 0 1-.072-10.515c0-104.934 23.25-192.413 52.313-196.66 23.35-6.734 46.83-6.734 70.181 0 28.26 3.78 51.08 87.53 51.668 189.565a17448.08 17448.08 0 0 1 0 512.758c-1.393 108.82-27.24 194.434-57.408 190.084h-60.135c-.445.051-.89.051-1.335.051-30.785 0-56.116-91.416-56.116-202.513 0-2.435.014-4.869.043-7.303.574-80.28.86-160.561.86-240.841Zm55.686 0v179.206a240.793 240.793 0 0 0-.259 11.188c0 36.929 8.425 67.331 18.658 67.331 1.249 0 2.483-.466 3.703-1.346h18.8c16.362 3.107 22.964-28.487 22.964-82.352v-339.25c.187-4.04.273-8.131.273-12.171 0-40.917-9.33-74.583-20.667-74.583-1.292 0-2.584.414-3.86 1.295h-18.945a5.286 5.286 0 0 0-1.766-.311c-10.477 0-19.088 31.128-19.088 68.886 0 3.21.057 6.422.187 9.633.143 57.491 0 114.982 0 172.474Zm-399.56-299.887v702.842c0 37.292-2.727 54.902-13.347 48.686h-1.723c-14.352-13.466-32.579 32.113-44.06-34.183-14.18 26.829-30.068 39.725-46.07 37.291-42.195-3.625-64.871-83.388-65.015-234.108V748.795c0-44.024 3.732-54.901 15.5-54.383 40.33 0 40.33 0 40.33 143.987v466.144c0 81.316 4.305 94.265 29.708 94.265s28.704-13.985 28.704-96.337V751.903c0-43.507 3.588-55.937 15.5-55.42 40.473 0 40.473 0 40.473 143.987Zm896.713 301.44c0-127.93.718-255.861 0-383.792 0-51.794 4.449-69.921 18.37-63.706 6.746 3.108 15.07-8.287 20.38 0 22.102 43.507 43.056-3.626 64.871 0 44.635 3.108 66.45 80.28 66.45 240.841v600.29c0 39.881-1.579 58.01-14.352 57.491-41.19 0-41.19 0-41.19-146.576V980.314c0-76.137-5.454-92.711-28.704-92.711s-29.565 16.056-29.565 90.121v557.301c0 41.953-2.727 56.456-15.07 55.938-40.903 0-40.903 0-40.903-148.13l-.287-300.923Zm-757.642 1514.969v-215.98c.86-149.166 23.25-227.375 64.44-228.41h54.968c27.341.983 50.735 73.546 55.112 170.919 1.148 27.968 0 42.989-8.324 51.794-12.343 9.84-24.542 20.717-36.741 32.112-4.134 7.458-9.243 1.398-11.338-13.467-14.64-47.443-35.564-60.702-53.82-34.184-6.2 15.746-9.473 42.782-8.468 69.922v345.983c0 51.793 7.607 81.834 22.102 79.762 14.496-2.072 34.445 23.307 43.056-56.973 1.292-12.949 6.028-5.697 9.329 0 10.477 9.84 20.81 21.753 31.574 27.969 10.764 6.215 15.788 29.004 12.2 72.51-6.2 86.652-27.614 148.65-52.385 151.757-21.672 3.107-43.056 3.107-65.302 0-28.79 2.33-53.16-80.022-54.394-183.868-1.866-88.05-2.01-269.846-2.01-269.846Zm614.122-1.554v-228.41c-.058-3.885-.1-7.821-.1-11.758 0-111.097 25.33-202.513 56.116-202.513 1.09 0 2.181.155 3.258.362h58.269c26.651-.052 49.973 66.866 55.973 160.56 2.009 33.667 0 55.42-10.19 62.153-7.894 4.662-15.644 12.949-23.394 20.2-7.75 7.251-17.222 23.307-26.408-23.825-9.185-47.132-29.852-27.45-45.209-19.682-13.06 6.216-13.347 51.794-13.49 88.568v315.424c0 38.327 0 79.762 14.352 93.747 17.796 17.61 41.046 3.625 47.935-31.595 0-3.107 0-9.322 1.292-10.876 17.796-34.184 32.722 15.02 48.94 23.307 10.477 4.661 7.033 36.256 5.741 59.045-4.908 85.874-25.274 149.736-49.514 155.381-23.896 4.869-47.864 4.869-71.76 0-29.365-5.283-52.428-95.974-51.38-201.996-.431-83.388-.431-165.74-.431-248.092Zm-335.693-3.107v179.206c0 59.563 7.75 80.798 22.963 83.388 34.588 5.18 33.87 6.215 34.732 133.11 0 51.794-4.019 64.742-17.223 60.599-13.204-4.144-25.26 0-37.745 0-.646.104-1.292.104-1.938.104-30.857 0-56.26-91.624-56.26-203.032 0-3.315.029-6.63.072-9.945v-420.565c0-34.702 1.148-69.922-13.491-61.117h-1.722c-13.635-45.06-3.301-103.588-6.172-155.381-1.291-22.272 0-43.507 8.468-39.882 13.06 6.216 12.917-22.789 12.917-56.455 0-125.859 0-125.859 34.301-155.381 21.241-19.682 21.098-19.682 21.241 56.455 0 49.204-4.162 111.357 2.44 143.987 6.602 32.63 25.69 10.359 39.037 11.394 9.76 0 12.487 10.877 12.63 46.097 0 147.612.861 149.166-38.894 148.13-11.912 0-16.218 10.877-15.5 54.902.861 60.598.144 122.75.144 184.386Zm-587.571-146.577v-538.137c0-38.328 2.009-51.794 14.352-51.794 41.908 0 41.908 0 41.908 150.202v977.867c0 51.793-2.153 71.993-18.371 69.921-37.459-4.661-37.459 0-37.459-135.182l-.43-472.877Zm1348.227 0v-543.835c0-39.363 2.44-51.794 14.352-51.794 41.764 0 41.764 0 41.764 149.167v989.261c0 45.06-2.44 60.08-15.787 59.563-39.899 0-39.899 0-39.899-144.505l-.43-457.857ZM1437.93 1443.35V748.795c0-44.542 4.019-58.009 15.644-54.383 9.185 3.108 18.37 0 27.412 0h8.324c8.181 75.1 17.94 8.805 26.552 3.108 16.074-10.36 36.31-29.005 45.352 15.538 9.042 44.542-4.736 110.838-6.89 168.847 0 11.913-3.3 15.539-6.457 12.431-2.21-2.383-4.464-4.299-6.746-5.697-44.204-9.841-48.366 0-47.649 149.166.862 166.776 0 333.552 0 500.328 0 40.917-3.3 51.794-14.352 51.794-41.19 0-41.19 0-41.19-146.577Zm-95.728-689.893c14.18-51.328 34.517-74.013 54.25-60.599 2.857.104 5.67 2.797 8.182 7.77 17.509 45.578 0 94.264 0 141.396 0 20.2 1.722 67.85-12.774 51.794-2.181-2.486-4.463-3.73-6.745-3.626-36.885-3.625-44.348-2.59-43.056 140.88 1.148 169.365 0 338.213 0 507.579 0 44.543-3.875 54.383-15.644 54.383-40.185 0-40.185 0-40.185-143.986V749.83c0-43.507 3.444-59.563 15.5-55.42 9.113 2.85 18.299 2.85 27.412 0 9.903-1.553 14.926 7.252 13.06 59.046Zm464.001 1521.702c14.595-56.61 36.597-80.436 57.407-62.153 10.764 4.662 17.51 20.718 11.913 65.26v6.216c-2.727 39.88-2.44 89.603-9.042 117.054-6.602 27.45-21.241 0-32.292 4.143-21.815 4.662-27.125 20.718-27.125 100.48v549.532c0 39.364-2.44 51.794-14.352 51.794-41.621 0-41.621 0-41.621-145.023v-679.534c0-61.117 5.023-80.28 21.097-71.994 7.392 3.108 14.855 3.108 22.246 0 9.185-1.553 13.921 10.36 11.769 64.225Zm295.937-1127.033v395.186c0 37.292-2.726 49.204-13.347 51.794-43.056 0-43.056 3.626-43.056-147.612V756.047c0-44.543 2.44-60.6 15.931-60.081 39.899 0 39.899 0 39.899 145.54l.574 306.62Zm-199.205 1504.609v-383.792c0-40.399 1.866-58.009 14.352-57.49 40.186 0 40.186 0 40.186 144.504v698.698c0 38.328-2.01 51.794-14.352 51.794-41.19 0-41.19 2.59-41.19-147.612l1.004-306.102Zm171.363-2258.727c27.843 0 27.986 0 27.986 103.587v55.42c0 54.901-11.625 41.435-18.227 35.738-12.486-10.36-29.995 40.399-37.171-35.22a648.776 648.776 0 0 1 0-55.42c-.287-104.105-.287-104.105 27.412-104.105ZM1957.76 2008.42c0 97.373 0 97.373-33.728 97.373-21.097 0-21.097 0-21.097-118.608 0-75.1 0-75.1 34.732-75.1 20.093.517 20.093.517 20.093 96.336Z" fill="#fff"/></g></g></svg>