<svg width="101" height="37" viewBox="0 0 101 37" fill="none" xmlns="http://www.w3.org/2000/svg">
<path d="M30.7775 9.79239C32.3806 10.9365 32.7509 12.2558 32.3518 13.6593C32.1567 14.3245 31.5691 15.5307 30.272 15.7857V31.2247C30.2744 32.4926 29.7739 33.7097 28.8802 34.6092C27.9866 35.5086 26.7727 36.017 25.5048 36.0229H7.50491C6.8754 36.0226 6.25213 35.8982 5.67074 35.6568C5.08935 35.4155 4.56124 35.0619 4.11663 34.6162C3.67202 34.1706 3.31962 33.6416 3.07959 33.0597C2.83957 32.4777 2.71662 31.8542 2.71779 31.2247V31.2247V15.7857C1.43176 15.5307 0.844178 14.3223 0.649057 13.6593C0.247728 12.2558 0.620232 10.9365 2.22333 9.79239L13.3231 1.77025C14.4694 0.936551 15.4716 0.533006 16.496 0.548527C17.5204 0.564048 18.5226 0.936551 19.6689 1.77025L30.7687 9.79239" fill="#F36F21"/>
<path d="M43.2387 19.7857C43.0946 19.1804 42.7221 18.8345 42.1168 18.8345C41.0791 18.8345 39.3806 19.6416 38.2875 20.3312V26.9542C39.1577 27.2072 40.0598 27.3334 40.966 27.3289C43.4981 27.3289 43.5292 25.3999 43.5292 23.0673C43.5234 21.9673 43.4262 20.8697 43.2387 19.7857ZM46.436 27.6172C45.456 29.4597 43.4117 30.3799 40.9083 30.3799C40.0268 30.3795 39.148 30.2829 38.2875 30.0917V34.728C38.2875 35.5329 38.0658 36.0229 37.1656 36.0229H36.1279C35.0902 36.0229 34.6002 35.8788 34.6002 34.728V17.4531C34.6002 16.4731 35.0436 16.2159 35.8684 16.2159H37.1656C37.9128 16.2159 38.0281 16.5884 38.1722 17.1649C39.5026 16.4443 40.9948 15.7835 42.578 15.7835C43.8728 15.7835 44.8817 16.1272 45.6289 16.9055C46.9261 18.2358 47.2409 20.3312 47.2409 22.9808C47.2409 25.3999 47.0391 26.493 46.436 27.6172ZM56.8196 23.9321C56.3296 23.9032 55.8706 23.8744 55.4094 23.8744C52.6733 23.8744 51.8972 24.1915 51.8972 25.7746C51.8972 26.8966 52.2121 27.7037 52.9615 27.7037C54.2919 27.7037 55.4959 27.2136 56.8196 26.2624V23.9321ZM59.2586 30.085H57.6444C57.1278 30.085 56.8107 29.7746 56.8107 28.9764C55.3717 29.8633 54.1056 30.3866 52.5491 30.3866C49.7841 30.3866 48.4316 28.9187 48.4316 26.0983C48.4316 22.7569 50.5912 21.8655 53.1256 21.5773C54.3381 21.4226 55.5596 21.3485 56.7819 21.3556C56.7819 20.5485 56.7531 19.7436 56.5801 19.2824C56.4072 18.8212 55.977 18.5906 55.3429 18.5906C54.334 18.5906 52.4914 18.8789 51.1943 19.1959C51.0246 19.238 50.8519 19.2669 50.6777 19.2824C50.0458 19.3401 49.6688 19.0806 49.6688 18.36V17.5396C49.6688 16.9631 49.813 16.5019 50.4759 16.329C52.0285 15.9924 53.6104 15.8097 55.1987 15.7835C56.3495 15.7835 58.3362 15.9565 59.3163 17.1139C60.15 18.0629 60.4094 18.9276 60.4094 21.7702V28.8478C60.4094 29.6549 60.1499 30.085 59.2586 30.085ZM70.8328 18.8922C70.1122 18.8633 69.5025 18.8345 68.5579 18.8345C67.0901 18.8345 66.7442 19.1228 66.4559 19.7214C66.1477 20.4177 65.9105 21.8345 65.9105 23.3267C65.9171 24.0881 65.9749 24.8481 66.0834 25.6017C66.2852 27.2136 66.6577 27.5019 67.8683 27.5019C68.875 27.4756 69.8733 27.3107 70.835 27.0119L70.8328 18.8922ZM73.9126 34.0939C72.9326 35.5639 71.0302 36.2535 68.6156 36.2535C66.7442 36.2535 64.4404 36.0318 63.2298 35.7081C62.5978 35.5351 62.3672 35.0163 62.3672 34.3777C62.3466 33.9255 62.4144 33.4736 62.5668 33.0473C62.6118 32.8845 62.7105 32.7418 62.847 32.6423C62.9835 32.5428 63.1497 32.4926 63.3185 32.4996C63.5613 32.5286 63.8016 32.5768 64.0368 32.6438C65.6021 33.0193 67.2055 33.2128 68.8151 33.2203C70.1455 33.2203 70.6022 32.7768 70.7441 31.8899C70.8202 31.2603 70.8499 30.6259 70.8328 29.9919C69.7331 30.2199 68.6144 30.3447 67.4914 30.3644C63.6621 30.3644 62.1699 28.2336 62.1699 23.4553C62.1699 20.8345 62.6599 18.819 63.722 17.5817C64.9881 16.1139 66.314 15.768 69.4226 15.768C70.7175 15.768 71.7552 15.768 73.3672 15.8833C74.2896 15.941 74.518 16.3135 74.518 17.1782V31.3156C74.518 32.7258 74.4337 33.3112 73.9149 34.0784L73.9126 34.0939ZM84.5578 21.1804C84.5578 19.3955 84.2984 18.646 82.3406 18.646C80.2674 18.646 79.835 19.3667 79.835 21.4686V21.7281H84.5578V21.1804ZM86.886 24.2713H79.8594C79.8306 25.7103 79.9171 26.8323 80.8106 27.2358C81.3607 27.4513 81.9471 27.559 82.5379 27.5529C83.7217 27.5249 84.8991 27.3703 86.0501 27.0917C86.3795 26.9937 86.7172 26.9261 87.0589 26.8899C87.4891 26.8899 87.7485 27.4088 87.835 27.7768C87.8841 28.0906 87.9034 28.4084 87.8926 28.7258C87.8926 29.391 87.7485 29.8478 86.8549 29.9919C85.4193 30.2374 83.9656 30.3627 82.5091 30.3666C80.3494 30.3666 78.7951 29.9076 77.8528 29.0141C76.6421 27.8921 76.2386 26.0185 76.2386 23.1693C76.2386 20.6349 76.498 18.9365 77.3916 17.6704C78.2851 16.4044 79.8306 15.7702 82.3716 15.7702C84.7618 15.7702 86.2008 16.3733 87.0279 17.5551C87.9148 18.85 88.0944 20.6593 88.0944 22.5063C88.0944 24.0895 87.8926 24.2646 86.886 24.2646V24.2713ZM95.0899 30.3378C93.7156 30.3575 92.3413 30.2938 90.9747 30.1471C90.3693 30.0629 90.1676 30.0318 90.1676 28.8167C90.1676 28.2691 90.1121 27.8677 90.3405 27.3201C90.458 27.0606 90.6576 26.9742 91.0057 26.9742C92.495 27.174 93.9954 27.2799 95.4979 27.2912C96.6775 27.2912 96.9369 27.1471 96.9369 26.2247C96.9369 25.7657 96.9081 25.4199 96.764 25.2757C96.3316 24.8323 93.7684 24.3888 91.8971 23.462C90.4292 22.7414 89.8527 21.9099 89.8527 20.2092C89.8527 18.6815 90.1986 17.646 90.8616 16.9831C91.8971 15.9476 93.5955 15.8301 96.3893 15.8301C97.1099 15.8301 97.8017 15.8301 98.5201 15.89C99.5556 15.9476 99.9591 16.176 99.9591 17.3002C99.9591 17.7436 99.9591 18.309 99.846 18.5374C99.6731 18.8833 99.4425 19.0851 98.8948 19.0851C98.2607 19.0851 97.0811 18.8633 95.0944 18.8633C93.6554 18.8633 93.4248 18.921 93.4248 19.9875C93.3981 20.1903 93.4496 20.3956 93.5689 20.5618C93.886 20.9653 96.3028 21.5995 97.1964 21.8922C99.438 22.6349 100.5 23.3844 100.5 25.9187C100.5 29.4309 99.2052 30.3533 95.0877 30.3533" fill="#434448"/>
<path d="M17.9816 30.0739C18.8685 30.0739 19.1102 29.5795 19.1102 28.7724V19.8877C19.1102 18.0074 18.2233 15.7813 14.6557 15.7813C13.2962 15.8131 11.9611 16.1495 10.7488 16.7658V11.411C10.7488 10.8633 10.5271 10.1671 9.62025 10.1671H8.3187C7.47835 10.1671 7.04376 10.4288 7.04376 11.411V28.9276C7.04376 29.6216 7.26549 30.085 8.0881 30.085H9.62025C10.5072 30.085 10.7488 29.5905 10.7488 28.7835V20.1782C11.9639 19.3112 13.1502 18.8478 14.2788 18.8478C14.7998 18.8478 15.0593 18.9054 15.2034 19.0695C15.4074 19.3289 15.4074 20.1094 15.4074 21.3533V28.7613C15.4074 29.6282 15.6956 30.0628 16.4495 30.0628H17.9816V30.0739ZM24.7821 30.0628C25.669 30.0628 25.9395 29.5728 25.9395 28.7635V17.4886C25.9395 16.9387 25.6778 16.2137 24.7821 16.2137H23.4229C22.5825 16.2137 22.1479 16.5041 22.1479 17.4886V28.7724C22.1479 29.9276 22.6402 30.0717 23.6823 30.0717H24.7909L24.7821 30.0628ZM24.7909 14.1604C25.6778 14.1604 25.9483 13.6682 25.9483 12.8589V11.8545C25.9483 11.3046 25.6867 10.5817 24.7909 10.5817H23.4317C22.5914 10.5817 22.1568 10.8722 22.1568 11.8545V12.8678C22.1568 14.023 22.649 14.1693 23.6911 14.1693H24.7998" fill="white"/>
</svg>
