<?xml version="1.0" encoding="UTF-8"?>
<svg xmlns="http://www.w3.org/2000/svg" width="499.99mm" height="195.12mm" viewBox="0 0 1417.31 553.1">
  <g id="a" data-name="Layer 1">
    <g>
      <g>
        <polygon points="141.73 121.42 188.95 121.42 188.95 163.92 216.1 163.92 216.1 121.42 263.32 121.42 263.32 240.06 216.1 240.06 216.1 198.15 188.95 198.15 188.95 240.06 141.73 240.06 141.73 121.42 141.73 121.42" fill-rule="evenodd"/>
        <path d="M393.17,202.29c0,31.87-21.84,40.73-60.8,40.73s-60.79-8.85-60.79-40.73V121.42h46.63v79.09c0,10.03,7.08,11.8,14.17,11.8s13.58-1.77,13.58-11.8V121.42h47.22v80.86h0Z" fill-rule="evenodd"/>
        <polygon points="420.91 160.97 388.45 160.97 388.45 121.42 500 121.42 500 160.97 467.54 160.97 467.54 240.06 420.91 240.06 420.91 160.97 420.91 160.97" fill-rule="evenodd"/>
        <path d="M602.71,165.1c-6.49-.59-15.94-2.95-31.87-2.95s-26.56,4.72-26.56,21.84,11.21,20.07,26.56,20.07c10.03,0,20.66-1.77,31.87-4.13v36c-15.35,4.13-29.51,7.08-44.27,7.08-46.04,0-63.16-20.07-63.16-63.75,0-38.96,16.53-60.79,61.98-60.79,16.53,0,37.19,5.9,45.45,7.67v38.96h0Z" fill-rule="evenodd"/>
        <polygon points="612.74 121.42 659.37 121.42 659.37 163.92 687.11 163.92 687.11 121.42 734.33 121.42 734.33 240.06 687.11 240.06 687.11 198.15 659.37 198.15 659.37 240.06 612.74 240.06 612.74 121.42 612.74 121.42" fill-rule="evenodd"/>
        <polygon points="744.36 121.42 791.58 121.42 791.58 240.06 744.36 240.06 744.36 121.42 744.36 121.42" fill-rule="evenodd"/>
        <polygon points="802.21 121.42 855.92 121.42 883.07 186.94 883.66 186.94 880.12 121.42 923.8 121.42 923.8 240.06 875.4 240.06 843.53 167.46 842.93 167.46 845.89 240.06 802.21 240.06 802.21 121.42 802.21 121.42" fill-rule="evenodd"/>
        <path d="M927.93,209.37c5.31,1.18,15.94,2.95,42.5,2.95,9.44,0,14.17-1.77,14.17-8.26s-2.36-8.26-12.4-8.26h-10.62c-21.84,0-38.37-3.54-38.37-38.96s26.56-38.37,53.71-38.37c18.3,0,38.96,2.36,49.58,4.13v35.41c-11.21-1.18-23.61-2.95-39.55-2.95-14.17,0-18.3,2.36-18.3,8.85,0,4.13,2.36,7.08,12.99,7.08,37.19,0,48.99,4.13,48.99,33.64,0,34.23-21.25,38.37-51.35,38.37-17.12,0-34.82-1.18-51.35-2.95v-30.69h0Z" fill-rule="evenodd"/>
        <path d="M1090.84,208.78c-12.39,0-18.89-7.67-18.89-25.38,0-14.76,2.95-24.2,18.89-24.2s19.48,9.44,19.48,24.2c0,17.71-6.49,25.38-19.48,25.38h0Zm-63.16-31.87c0,44.27,16.53,66.11,63.16,66.11s63.75-21.84,63.75-66.11-17.71-58.43-63.75-58.43-63.16,14.76-63.16,58.43h0Z" fill-rule="evenodd"/>
        <polygon points="1153.99 121.42 1207.12 121.42 1234.86 186.94 1234.86 186.94 1231.91 121.42 1275.58 121.42 1275.58 240.06 1227.18 240.06 1194.72 167.46 1194.72 167.46 1197.67 240.06 1153.99 240.06 1153.99 121.42 1153.99 121.42" fill-rule="evenodd"/>
      </g>
      <rect x="141.73" y="257.77" width="1133.86" height="107.42" fill="#0083bf"/>
      <g>
        <path d="M352.15,316.2h26.56c1.77,0,4.13,0,6.49,1.18,1.77,1.18,1.77,2.95,1.77,4.13v3.54c0,1.18-.59,2.95-2.36,4.13-1.77,.59-4.13,.59-6.49,.59h-25.97v-13.57Zm27.15-42.5h-55.48v72.01h63.16c8.26,0,14.76-.59,20.66-2.95,6.49-2.95,8.85-7.67,8.85-12.99v-3.54c0-5.31,0-9.44-5.9-12.99-4.13-2.95-7.08-2.95-11.8-4.13,2.95-.59,7.67-1.77,11.21-4.72,2.95-2.36,3.54-4.72,3.54-8.26l.59-2.36c0-5.9-1.18-10.62-7.08-14.76-6.49-5.31-16.53-5.31-27.74-5.31m-27.15,15.94h24.2c2.36,0,4.72,0,5.9,1.18,1.77,1.18,2.36,2.36,2.36,3.54v2.95c0,2.36-.59,3.54-2.36,4.13-1.18,.59-2.36,1.18-4.72,1.18h-25.38v-12.99Z" fill="#fff"/>
        <rect x="544.74" y="273.71" width="29.51" height="72.01" fill="#fff"/>
        <polygon points="666.72 329.78 666.72 345.71 590.57 345.71 590.57 273.71 620.09 273.71 620.09 329.78 666.72 329.78" fill="#fff"/>
        <path d="M737.34,273.71h-54.3v72.01h56.66c10.62,0,18.3-.59,26.56-4.13,11.8-4.72,14.16-12.99,14.16-22.43v-20.07c0-4.13-1.77-11.21-8.26-16.53-8.85-7.67-25.97-8.85-34.82-8.85m-25.38,15.94h23.02c4.72,0,8.26,.59,11.8,2.36,2.95,2.36,2.95,5.31,2.95,8.26v18.89c0,2.95,0,6.49-3.54,8.85-2.95,1.77-6.49,1.77-10.62,1.77h-23.61v-40.14Z" fill="#fff"/>
        <polygon points="826.85 302.63 871.71 302.63 871.71 316.2 826.85 316.2 826.85 329.78 876.43 329.78 876.43 345.72 796.75 345.72 796.75 273.71 873.48 273.71 873.48 289.64 826.85 289.64 826.85 302.63" fill="#fff"/>
        <path d="M922.85,326.83h21.25c3.54,0,5.9,.59,8.26,2.36,2.36,1.18,2.95,2.36,2.95,4.13v12.4h30.1v-11.81c0-5.31-1.18-8.85-7.08-12.4-2.95-1.77-5.9-2.36-10.03-3.54,5.9-1.18,9.44-2.36,12.98-5.31,4.72-3.54,4.72-5.31,4.13-12.4v-4.13c.59-7.67,.59-13.57-10.03-18.3-7.67-3.54-18.89-4.13-24.2-4.13h-58.43v72.01h30.1v-18.89Zm22.43-16.53h-22.43v-20.66h23.02c2.36,0,5.31,0,8.26,1.18,1.18,1.18,1.77,3.54,1.77,5.9v5.9c0,2.36,.59,4.72-2.36,6.49-2.36,1.77-5.9,1.18-8.26,1.18" fill="#fff"/>
        <path d="M1061.62,296.13v-2.36c0-1.18,0-2.36-1.18-3.54-2.36-2.36-7.08-1.77-11.8-1.77h-4.13c-1.77,0-10.03,0-11.81,1.18-1.77,1.77-2.36,2.95-2.36,4.72v1.18c0,2.36,0,3.54,2.36,4.72,1.77,1.77,4.72,1.18,7.67,1.18l27.15,1.77c6.49,0,11.8,.59,16.53,3.54,7.67,3.54,9.44,10.04,9.44,15.94v3.54c0,4.72,0,10.62-7.67,15.35-9.44,5.31-24.79,4.13-34.82,4.13h-11.8c-5.9,0-17.71,1.18-28.33-3.54-7.67-4.13-8.85-9.45-8.85-15.94v-4.13h27.15v2.95c0,1.18,.59,2.36,1.77,3.54,2.95,2.95,11.8,2.95,13.58,2.95h6.49c4.72,0,8.85,0,11.81-1.77,1.18-1.18,2.36-2.36,2.36-4.13v-1.18c0-1.18,0-3.54-2.36-5.31-2.36-1.18-6.49-1.18-8.85-1.77l-21.25-.59c-7.08-.59-17.71-1.77-23.02-4.72-6.49-2.95-7.67-10.04-7.67-15.35v-2.36c0-6.49,1.77-11.8,9.44-17.12,5.31-3.54,22.43-3.54,26.56-3.54h18.89c3.54,0,14.76-.59,22.43,2.95,8.85,4.13,10.63,11.22,10.63,16.53v2.95h-28.33Z" fill="#fff"/>
        <path d="M483.01,345.51c8.85,.59,29.51,1.77,39.55-7.08,5.31-5.31,5.31-14.76,5.31-15.94v-48.99h-29.51v47.22c0,2.95,0,5.31-2.36,7.08-2.36,2.36-8.85,1.77-11.8,1.77h-7.15c-2.95,0-9.44,.59-11.8-1.77-2.36-1.77-2.36-4.13-2.36-7.08v-47.22h-29.51v48.99c0,1.18,0,10.62,5.31,15.94,10.03,8.85,30.69,7.67,39.55,7.08h4.79Z" fill="#fff"/>
      </g>
      <g>
        <polygon points="471.04 391.3 471.04 433.87 503.41 433.87 503.41 426.69 479.63 426.69 479.63 415.11 501 415.11 501 407.94 479.63 407.94 479.63 398.51 502.6 398.51 502.6 391.3 471.04 391.3"/>
        <path d="M507.77,425.07l8.19-1.25c.35,1.59,1.06,2.8,2.12,3.62,1.06,.82,2.56,1.24,4.47,1.24,2.11,0,3.7-.39,4.76-1.16,.72-.54,1.08-1.27,1.08-2.18,0-.62-.19-1.13-.58-1.54-.41-.39-1.32-.75-2.73-1.07-6.58-1.45-10.75-2.78-12.51-3.98-2.44-1.66-3.66-3.98-3.66-6.94,0-2.68,1.06-4.92,3.17-6.74,2.11-1.82,5.38-2.73,9.81-2.73s7.36,.69,9.41,2.06c2.05,1.38,3.46,3.4,4.24,6.1l-7.69,1.43c-.33-1.21-.95-2.12-1.87-2.76-.92-.64-2.23-.96-3.94-.96-2.15,0-3.69,.3-4.62,.9-.62,.43-.93,.98-.93,1.65,0,.59,.27,1.08,.81,1.48,.74,.54,3.28,1.31,7.62,2.29,4.35,.99,7.38,2.2,9.1,3.63,1.7,1.45,2.56,3.48,2.56,6.07,0,2.82-1.18,5.26-3.54,7.28-2.36,2.03-5.86,3.05-10.48,3.05-4.2,0-7.52-.85-9.97-2.55-2.45-1.7-4.05-4.02-4.81-6.94"/>
        <path d="M557.85,403.03v6.51h-5.57v12.42c0,2.51,.05,3.98,.16,4.4,.1,.42,.35,.76,.72,1.03,.38,.27,.84,.4,1.38,.4,.76,0,1.85-.26,3.28-.78l.7,6.33c-1.9,.82-4.04,1.22-6.45,1.22-1.47,0-2.8-.25-3.98-.74-1.18-.49-2.05-1.13-2.6-1.92-.55-.78-.93-1.84-1.15-3.18-.17-.94-.26-2.86-.26-5.75v-13.44h-3.74v-6.51h3.74v-6.12l8.19-4.76v10.89h5.57Z"/>
        <path d="M580.52,419.06c-1.04,.35-2.7,.76-4.96,1.25-2.27,.48-3.75,.96-4.44,1.42-1.06,.76-1.6,1.71-1.6,2.87s.43,2.13,1.28,2.96c.85,.83,1.93,1.25,3.25,1.25,1.47,0,2.87-.49,4.21-1.45,.99-.73,1.64-1.64,1.95-2.7,.21-.7,.32-2.02,.32-3.98v-1.62Zm-10.92-6.62l-7.4-1.34c.83-2.98,2.26-5.18,4.3-6.62,2.03-1.43,5.05-2.15,9.06-2.15,3.64,0,6.35,.43,8.13,1.29,1.78,.86,3.03,1.96,3.76,3.28,.73,1.33,1.09,3.76,1.09,7.31l-.09,9.52c0,2.71,.13,4.71,.39,5.99,.26,1.29,.75,2.67,1.47,4.14h-8.07c-.21-.54-.48-1.34-.79-2.41-.14-.49-.23-.8-.29-.96-1.39,1.35-2.88,2.37-4.47,3.05-1.59,.68-3.28,1.02-5.08,1.02-3.18,0-5.68-.86-7.51-2.58-1.83-1.72-2.74-3.9-2.74-6.53,0-1.75,.42-3.3,1.25-4.66,.83-1.36,2-2.41,3.5-3.13,1.5-.72,3.66-1.36,6.49-1.9,3.81-.72,6.46-1.38,7.93-2v-.82c0-1.56-.39-2.68-1.16-3.35-.77-.67-2.24-1.01-4.39-1.01-1.45,0-2.58,.29-3.4,.86-.81,.57-1.47,1.57-1.97,3.01"/>
        <path d="M604.33,417.78c0,3.2,.5,5.56,1.51,7.09,1.41,2.17,3.29,3.25,5.63,3.25,1.8,0,3.34-.77,4.6-2.31,1.27-1.54,1.9-3.96,1.9-7.27,0-3.52-.64-6.06-1.92-7.62-1.28-1.56-2.91-2.34-4.9-2.34s-3.58,.76-4.88,2.28c-1.3,1.52-1.95,3.82-1.95,6.92m-8.1,16.08v-42.56h8.16v15.33c2.51-2.86,5.5-4.3,8.94-4.3,3.75,0,6.86,1.36,9.32,4.08,2.46,2.72,3.69,6.63,3.69,11.72s-1.25,9.32-3.76,12.17c-2.51,2.85-5.55,4.27-9.13,4.27-1.76,0-3.5-.44-5.21-1.32-1.71-.88-3.19-2.18-4.43-3.91v4.53h-7.58Z"/>
        <rect x="632.9" y="391.31" width="8.16" height="42.56"/>
        <path d="M649.42,433.87h8.16v-30.83h-8.16v30.83Zm0-35.01h8.16v-7.55h-8.16v7.55Z"/>
        <path d="M663.07,425.07l8.19-1.25c.35,1.59,1.06,2.8,2.12,3.62,1.06,.82,2.56,1.24,4.47,1.24,2.11,0,3.7-.39,4.76-1.16,.72-.54,1.08-1.27,1.08-2.18,0-.62-.19-1.13-.58-1.54-.41-.39-1.32-.75-2.73-1.07-6.58-1.45-10.75-2.78-12.51-3.98-2.44-1.66-3.66-3.98-3.66-6.94,0-2.68,1.06-4.92,3.16-6.74,2.11-1.82,5.38-2.73,9.81-2.73s7.36,.69,9.41,2.06c2.05,1.38,3.46,3.4,4.24,6.1l-7.69,1.43c-.33-1.21-.95-2.12-1.87-2.76-.92-.64-2.23-.96-3.94-.96-2.15,0-3.69,.3-4.62,.9-.62,.43-.93,.98-.93,1.65,0,.59,.27,1.08,.81,1.48,.74,.54,3.28,1.31,7.62,2.29,4.35,.99,7.38,2.2,9.1,3.63,1.7,1.45,2.56,3.48,2.56,6.07,0,2.82-1.18,5.26-3.54,7.28-2.36,2.03-5.86,3.05-10.48,3.05-4.2,0-7.52-.85-9.97-2.55-2.45-1.7-4.05-4.02-4.81-6.94"/>
        <path d="M707.14,391.31v15.65c2.63-3.08,5.79-4.61,9.43-4.61,1.88,0,3.58,.35,5.09,1.04,1.51,.7,2.65,1.59,3.41,2.67,.76,1.09,1.28,2.29,1.57,3.6,.28,1.31,.42,3.35,.42,6.12v18.09h-8.16v-16.29c0-3.23-.16-5.28-.47-6.16-.31-.87-.86-1.56-1.65-2.07-.79-.51-1.77-.77-2.94-.77-1.36,0-2.57,.33-3.64,.99-1.06,.66-1.84,1.65-2.33,2.98-.49,1.32-.74,3.28-.74,5.87v15.45h-8.16v-42.56h8.16Z"/>
        <path d="M753.65,415.81c-.06-2.36-.67-4.16-1.83-5.38-1.16-1.23-2.57-1.84-4.24-1.84-1.78,0-3.25,.65-4.41,1.94-1.17,1.3-1.74,3.06-1.71,5.28h12.19Zm-.46,8.25l8.13,1.37c-1.04,2.98-2.7,5.25-4.95,6.81-2.26,1.56-5.07,2.34-8.46,2.34-5.36,0-9.33-1.75-11.9-5.26-2.04-2.81-3.05-6.34-3.05-10.62,0-5.11,1.34-9.11,4.01-12.01,2.67-2.89,6.05-4.34,10.14-4.34,4.59,0,8.21,1.52,10.85,4.54,2.65,3.03,3.92,7.67,3.81,13.92h-20.44c.06,2.42,.72,4.3,1.98,5.65,1.25,1.34,2.82,2.02,4.7,2.02,1.28,0,2.35-.35,3.22-1.04,.87-.7,1.53-1.82,1.97-3.37"/>
        <path d="M774.91,417.78c0,3.29,.45,5.67,1.36,7.14,1.32,2.13,3.16,3.19,5.52,3.19,1.88,0,3.48-.8,4.79-2.4,1.32-1.59,1.97-3.98,1.97-7.15,0-3.54-.64-6.1-1.92-7.66-1.28-1.56-2.91-2.34-4.91-2.34s-3.55,.77-4.86,2.31c-1.31,1.54-1.96,3.83-1.96,6.9m21.78,16.08h-7.58v-4.53c-1.26,1.76-2.75,3.08-4.46,3.94-1.71,.86-3.44,1.29-5.18,1.29-3.54,0-6.58-1.43-9.1-4.28-2.52-2.85-3.79-6.84-3.79-11.94s1.23-9.2,3.69-11.92c2.46-2.72,5.57-4.08,9.32-4.08,3.44,0,6.42,1.43,8.94,4.3v-15.33h8.16v42.56Z"/>
        <path d="M840.39,433.87h-8.16v-30.75c-2.98,2.79-6.49,4.85-10.54,6.18v-7.41c2.13-.7,4.44-2.02,6.94-3.96,2.49-1.95,4.21-4.21,5.13-6.81h6.62v42.74Z"/>
        <path d="M871.22,406.2c0-2.64-.61-4.68-1.82-6.13-1.21-1.45-2.61-2.18-4.19-2.18s-2.76,.6-3.76,1.79c-1,1.19-1.5,3.15-1.5,5.85s.54,4.76,1.63,6.05c1.08,1.29,2.44,1.93,4.06,1.93s2.89-.62,3.96-1.86c1.07-1.24,1.61-3.06,1.61-5.45m-18.47,17.82l7.89-.87c.19,1.6,.7,2.8,1.51,3.57,.81,.77,1.89,1.16,3.22,1.16,1.68,0,3.12-.77,4.3-2.32,1.18-1.55,1.93-4.76,2.27-9.64-2.05,2.38-4.62,3.57-7.69,3.57-3.35,0-6.24-1.29-8.67-3.88-2.43-2.58-3.65-5.95-3.65-10.09s1.28-7.8,3.85-10.44c2.56-2.64,5.83-3.96,9.79-3.96,4.32,0,7.86,1.67,10.63,5.01,2.77,3.34,4.15,8.83,4.15,16.48s-1.44,13.39-4.32,16.84c-2.88,3.44-6.64,5.17-11.27,5.17-3.33,0-6.02-.89-8.07-2.66-2.05-1.77-3.37-4.42-3.95-7.94"/>
        <path d="M906.53,433.87h-8.16v-30.75c-2.98,2.79-6.49,4.85-10.54,6.18v-7.41c2.13-.7,4.44-2.02,6.94-3.96,2.49-1.95,4.21-4.21,5.13-6.81h6.62v42.74Z"/>
        <path d="M946.27,426.29v7.58h-28.6c.31-2.86,1.24-5.58,2.79-8.15,1.55-2.56,4.61-5.96,9.17-10.2,3.68-3.43,5.94-5.75,6.76-6.97,1.12-1.68,1.69-3.35,1.69-4.99,0-1.82-.49-3.22-1.46-4.19-.98-.98-2.33-1.47-4.05-1.47s-3.06,.51-4.07,1.54c-1,1.02-1.59,2.73-1.74,5.11l-8.13-.81c.49-4.49,2.01-7.71,4.56-9.67,2.55-1.96,5.75-2.93,9.58-2.93,4.2,0,7.5,1.13,9.9,3.4,2.4,2.26,3.6,5.08,3.6,8.45,0,1.91-.34,3.74-1.03,5.47-.69,1.73-1.78,3.55-3.27,5.44-.99,1.25-2.77,3.07-5.35,5.43-2.57,2.36-4.2,3.93-4.89,4.7s-1.24,1.53-1.67,2.27h16.2Z"/>
      </g>
    </g>
  </g>
  <g id="b" data-name="Layer 2"/>
</svg>