<svg xmlns="http://www.w3.org/2000/svg" xml:space="preserve" fill-rule="evenodd" stroke-linejoin="round" stroke-miterlimit="2" clip-rule="evenodd" version="1.1" viewBox="0 0 5206 2041"><path d="M0 0h5205.72v2040.107H0z" fill="none"/><g fill-rule="nonzero"><path d="M181.946 1310.535v439.183c0 92.776 73.798 136.454 154.827 90.366a458241.125 126978.56 0 0 0 774.138-447.315c32.953-15.362 54.128-48.557 54.128-84.914 0-35.665-20.331-68.348-52.321-84.072-52.112-32.23-106.33-60.244-158.744-92.776-18.375-11.145-30.122-4.217-45.785 4.519a484850.373 134351.98 0 0 1-349.719 201.818c-36.506 24.219-85.606 18.586-115.667-13.254-26.96-30.664-29.942-75.998-7.23-109.946a127.853 127.853 0 0 1 44.882-35.243l615.395-354.237c90.366-52.714 92.473-135.852 1.807-188.264A658784.39 182549.075 0 0 0 338.58 198.724c-83.438-47.895-156.334-5.121-156.634 90.367v104.524c.932 24.248-8.225 47.834-25.303 65.064-21.597 23.796-55.094 33.074-85.848 23.796-32.956-6.687-58.137-33.827-62.356-67.172A550.479 550.479 0 0 1 19.89 186.976C57.268 77.542 160.77 3.531 276.438 3.531a271.235 271.235 0 0 1 129.314 32.834c167.177 92.174 331.344 189.77 497.015 285.257a116231.37 32207.699 0 0 1 290.377 167.781c196.999 114.766 197.3 367.492 0 481.956-18.675 10.844-36.75 22.591-56.028 32.231-25.603 12.35-18.975 20.182 0 31.628a610.916 610.916 0 0 1 109.344 69.282c58.408 51.448 91.903 125.61 91.903 203.445 0 96.994-52.05 186.878-136.181 235.134-249.713 146.093-501.534 289.475-753.053 434.664a339.35 339.35 0 0 1-156.937 58.136c-6.477.452-12.983.693-19.49.693-148.713 0-271.099-122.357-271.099-271.1 0-3.434.09-6.898.21-10.332-2.107-297.608-2.71-595.216 0-892.823 2.11-228.327 223.207-351.828 421.71-238.268 69.884 40.063 139.466 80.728 209.35 120.49 26.508 12.41 45.634 36.689 51.51 65.365 7.74 33.887-6.327 69.25-35.244 88.56-28.135 20.392-65.997 21.717-95.488 3.312-71.99-40.664-144.284-81.932-215.373-124.404-32.322-24.76-76.63-27.502-111.753-6.929-33.225 20.785-51.658 58.95-47.29 97.898 3.311 146.996 2.709 294.596 2.709 442.194Z" fill="#05fefe"/><path d="M2115.483 578.866c39.16 29.25 59.01 77.926 51.509 126.213v65.064c0 85.276-70.155 155.43-155.43 155.43h-256.038c-20.784 0-31.629-3.313-30.122-27.11a647.282 647.282 0 0 0 0-68.377c0-15.664 0-30.123 21.387-27.411 14.157 0 12.652-11.447 12.652-20.785V372.83c0-6.928 0-15.362-6.628-18.977-6.626-3.614-28.013 1.808-27.41-19.58 0-32.531 0-64.762 2.109-96.993 0-9.64 13.554-7.53 21.386-7.53 90.365 0 180.731-2.41 271.097 0 81.483 3.675 146.485 71.751 146.395 153.322v60.244c.302 72.294-3.615 82.837-50.907 135.55Zm-229.828-145.791v53.918c0 17.773 3.614 30.123 27.108 30.123h75.908a18.49 5.124 0 0 0 2.44.06c27.743 0 50.605-22.833 50.605-50.605 0-.422-.03-.843-.03-1.266V421.93c0-54.521-15.965-69.883-71.086-70.185-84.945-.903-84.945-.903-84.945 81.33Zm0 288.27v60.244c0 15.362 4.819 21.387 20.482 20.784h83.136c28.768 0 52.414-23.646 52.414-52.412v-39.762c0-56.027-15.966-71.992-72.594-72.293-83.438.603-83.438.603-83.138 84.342l-.3-.903Zm-159.65 737.391v-316.584c0-22.893 5.42-30.122 30.122-30.122h382.25c24.096 0 30.122 6.928 30.122 30.122 0 91.873 0 91.873-90.366 91.873h-198.506c-21.387 0-30.122 4.519-28.615 27.712 1.805 35.846 0 71.993 0 107.838 0 21.688 5.121 30.122 27.713 30.122h173.202c20.782 0 30.122 3.916 30.122 27.411 1.505 94.584 2.41 94.584-90.366 94.584-34.944 0-69.885 1.507-104.525 0-25.906 0-37.35 4.217-35.244 33.135a10437.372 2892.194 0 0 1 0 104.223c-1.504 23.797 6.024 30.122 30.123 30.122h252.423c30.123 0 35.544 9.639 35.244 36.75 0 85.847 0 85.847-85.548 85.847-106.03 0-210.855-1.506-317.487 0-33.134 0-39.157-9.94-38.555-40.364-.602-106.632-2.11-209.65-2.11-312.669ZM4077.94 675.56c9.94-67.775 20.182-134.345 30.122-201.217 9.94-66.871 9.037-70.185 80.426-70.185h25.303c16.566 0 23.494 3.012 20.483 22.29a604152.147 167410.488 0 0 0-76.51 475.63c-2.712 16.87-9.038 23.797-27.41 24.4-73.501 2.41-73.501 3.314-94.284-66.57-9.94-32.833-20.182-65.666-30.122-98.199-15.965 1.808-14.46 14.158-17.168 22.29-9.037 27.11-16.568 54.823-24.4 82.536-17.471 60.244-41.57 72.895-103.019 60.244-13.254-3.013-14.458-10.844-15.963-20.182-26.298-160.642-52.624-321.314-78.922-481.955-2.41-14.76 3.014-20.182 16.87-19.279h10.843c87.957-1.506 88.259-1.506 100.608 84.342a1297.02 1297.02 0 0 1 19.58 160.25c0 6.929-3.916 18.074 9.94 18.676 13.857.603 9.036-7.53 12.047-13.856 19.582-38.556 30.125-80.727 44.583-120.489 5.121-12.65 2.71-34.34 19.578-34.941 16.87-.603 15.363 21.386 19.882 33.736 14.156 39.46 26.206 79.523 40.062 120.49 1.807 5.421.903 17.17 17.47 21.989Zm-1617.257 872.038v-133.14c-.151-2.44-.21-4.88-.21-7.35 0-66.088 54.37-120.489 120.488-120.489 1.658 0 3.344.06 5.031.12h115.367c.844-.03 1.656-.03 2.498-.03 64.765 0 118.08 53.317 118.08 118.08 0 1.506-.03 3.042-.09 4.548v168.986c0 21.99-6.325 30.122-28.314 30.122h-176.816c-15.364 0-37.653-10.844-39.762 20.785-2.41 42.773 6.325 64.762 37.35 65.365 31.027.602 74.703 17.47 93.078-30.123 3.012-8.434 12.047-4.82 18.977-3.012a368.458 368.458 0 0 0 56.028 13.555c35.844 3.314 39.76 22.291 30.122 51.811-11.868 45.695-52.533 78.498-99.706 80.427a1213.667 1213.667 0 0 1-144.285 0c-61.478-3.827-109.795-55.877-109.041-117.478v-142.177h1.205Zm183.142-55.424c16.868-2.712 42.774 9.337 55.425-5.723 12.652-15.062 6.326-41.268 2.712-62.052-3.765-14.58-17.168-24.73-32.232-24.4a96.512 26.743 0 0 0-39.46 0c-45.183 0-50.604 9.94-53.618 60.245-2.71 45.485 28.015 30.122 50.005 32.23 5.723.332 11.444.332 17.168 0v-.3Zm2358.26 102.717v187.059c0 18.073-4.818 30.122-24.096 25-27.11-5.421-60.244 16.568-81.029-18.976-3.614-6.025-10.542 0-15.663 3.012-49.7 27.713-103.318 19.58-154.527 10.242-48.166-11.206-83.107-53.588-84.945-103.019a11369.587 3150.511 0 0 1 0-97.294c3.014-60.064 51.691-108.59 111.753-111.453 30.122-2.108 62.356 0 93.68 0 14.159 0 37.353 10.844 37.353-18.374s7.53-60.244-27.713-64.763c-35.243-4.518-78.317-24.097-100.306 26.206-2.592 5.663-9.277 8.344-15.061 6.025l-84.04-21.086c-14.16-3.614-12.652-14.458-12.05-25.905 3.373-52.503 45.152-95.066 97.595-99.403a682.383 682.383 0 0 1 154.829 0c61.417 6.597 107.474 60.937 103.92 122.597.903 57.835.3 118.983.3 180.132Zm-180.732 100.005c55.425 0 62.656-8.735 65.365-60.244 3.314-56.93-37.953-30.122-60.244-34.942a86.902 86.902 0 0 0-25.001 0 12.318 3.413 0 0 0-2.802-.09c-21.626 0-39.458 17.802-39.458 39.46 0 2.44.24 4.91.693 7.32-.905 39.158 10.24 48.496 60.242 48.496h1.205ZM3336.936 663.21V526.754a1347.302 373.337 0 0 1-.151-6.115c0-61.027 48.797-111.903 109.795-114.373a924.787 924.787 0 0 1 147.296 0c59.313 2.198 107.208 50.905 108.442 110.247a36620.205 10147.454 0 0 1 0 298.21c-2.924 63.287-57.172 113.079-120.489 110.549h-126.212c-.934.03-1.868.03-2.802.03-64.612 0-117.777-53.166-117.777-117.778 0-1.416.03-2.832.09-4.247 1.205-46.69 1.806-93.38 1.806-140.069Zm116.874 0v104.22a505.379 140.04 0 0 0-.543 6.507c0 21.477 17.682 39.159 39.16 39.159 2.62 0 5.21-.271 7.771-.783h39.458c34.34 1.807 48.197-16.568 48.197-47.895v-197.3c.392-2.35.573-4.73.573-7.079 0-23.796-19.582-43.376-43.376-43.376-2.712 0-5.424.24-8.102.753h-39.762a11.094 3.074 0 0 0-3.706-.18c-21.99 0-40.062 18.103-40.062 40.062 0 1.867.12 3.735.392 5.602.3 33.436 0 66.872 0 100.308Zm-838.6-174.41v408.758c0 21.689-5.724 31.93-28.013 28.315h-3.616c-30.123-7.831-68.378 18.676-92.474-19.88-29.761 15.603-63.107 23.103-96.692 21.688-88.56-2.108-136.152-48.497-136.454-136.153V435.484c0-25.603 7.832-31.93 32.531-31.628 84.645 0 84.645 0 84.645 83.74v271.1c0 47.292 9.036 54.823 62.352 54.823s60.244-8.134 60.244-56.028v-320.2c0-25.302 7.53-32.531 32.531-32.23 84.946 0 84.946 0 84.946 83.74Zm1882.03 175.311c0-74.402 1.507-148.804 0-223.206 0-30.122 9.337-40.664 38.555-37.05 14.159 1.808 31.629-4.82 42.774 0 46.388 25.303 90.366-2.109 136.152 0 93.68 1.808 139.466 46.69 139.466 140.068V893.04c0 23.194-3.314 33.738-30.123 33.436-86.45 0-86.45 0-86.45-85.246v-271.1c0-44.28-11.446-53.919-60.244-53.919s-62.051 9.338-62.051 52.413V892.74c0 24.399-5.724 32.834-31.63 32.532-85.847 0-85.847 0-85.847-86.15l-.602-175.01Zm-1590.147 881.076v-125.61c1.805-86.752 48.798-132.237 135.248-132.839h115.367c57.383.572 106.483 42.773 115.67 99.403 2.409 16.266 0 25.002-17.471 30.123-25.906 5.723-51.509 12.048-77.112 18.675-8.677 4.338-19.4.814-23.797-7.832-30.726-27.592-74.642-35.303-112.958-19.88-13.012 9.157-19.882 24.88-17.772 40.665v201.217c0 30.121 15.965 47.593 46.388 46.388 30.424-1.205 72.293 13.555 90.366-33.135 2.712-7.53 12.652-3.313 19.58 0 21.989 5.723 43.676 12.651 66.268 16.266 22.591 3.615 33.136 16.869 25.605 42.17-13.013 50.396-57.956 86.453-109.946 88.26-45.486 1.807-90.366 1.807-137.057 0-60.424 1.355-111.572-46.54-114.162-106.934-3.917-51.208-4.219-156.937-4.219-156.937Zm1288.926-.904v-132.839c-.122-2.26-.21-4.548-.21-6.838 0-64.612 53.163-117.778 117.777-117.778 2.287 0 4.577.09 6.837.211h122.296c55.935-.03 104.884 38.888 117.477 93.379 4.216 19.58 0 32.23-21.387 36.146-16.568 2.712-32.834 7.531-49.1 11.748-16.265 4.217-36.145 13.555-55.425-13.856-19.278-27.41-62.654-15.964-94.885-11.446-27.41 3.615-28.013 30.122-28.313 51.509v183.444c0 22.29 0 46.388 30.122 54.522 37.35 10.241 86.148 2.108 100.606-18.375 0-1.807 0-5.422 2.712-6.326 37.35-19.88 68.677 8.736 102.716 13.555 21.99 2.711 14.76 21.086 12.05 34.34-10.302 49.942-53.046 87.083-103.921 90.366a1336.152 1336.152 0 0 1-150.61 0c-61.633-3.072-110.037-55.816-107.838-117.477-.904-48.497-.904-96.39-.904-144.285Zm-704.556-1.807V1646.7c0 34.64 16.266 46.99 48.195 48.496 72.593 3.013 71.086 3.615 72.896 77.414 0 30.123-8.435 37.653-36.148 35.244-27.713-2.41-53.016 0-79.22 0-1.356.06-2.711.06-4.067.06-64.763 0-118.08-53.287-118.08-118.08 0-1.927.062-3.855.152-5.783v-244.592c0-20.182 2.41-40.665-28.315-35.545h-3.614c-28.618-26.206-6.929-60.244-12.954-90.366-2.71-12.953 0-25.303 17.772-23.195 27.41 3.615 27.11-13.253 27.11-32.833 0-73.197 0-73.197 71.992-90.366 44.58-11.447 44.28-11.447 44.58 32.833 0 28.616-8.734 64.763 5.122 83.74 13.856 18.977 53.918 6.024 81.931 6.626 20.485 0 26.208 6.326 26.508 26.81 0 85.848 1.807 86.751-81.63 86.149-25.002 0-34.04 6.326-32.532 31.93 1.807 35.242.302 71.389.302 107.235Zm-1233.2-85.246v-312.97c0-22.29 4.216-30.122 30.122-30.122 87.957 0 87.957 0 87.957 87.354V1770.2c0 30.122-4.519 41.87-38.557 40.665-78.62-2.711-78.62 0-78.62-78.62l-.902-275.015Zm2829.672 0v-316.284c0-22.893 5.121-30.122 30.122-30.122 87.655 0 87.655 0 87.655 86.752v575.335c0 26.206-5.121 34.941-33.134 34.64-83.74 0-83.74 0-83.74-84.04l-.903-266.281ZM3017.942 839.423V435.484c0-25.905 8.435-33.737 32.834-31.628 19.277 1.808 38.555 0 57.532 0h17.47c17.171 43.677 37.653 5.12 55.728 1.808 33.737-6.025 76.208-16.869 95.186 9.036 18.977 25.905-9.94 64.461-14.461 98.198 0 6.929-6.926 9.037-13.552 7.23-4.639-1.386-9.37-2.5-14.159-3.313-92.776-5.724-101.51 0-100.006 86.752 1.81 96.993 0 193.987 0 290.98 0 23.797-6.926 30.123-30.122 30.123-86.45 0-86.45 0-86.45-85.247Zm-200.915-401.227c29.761-29.852 72.445-43.045 113.86-35.244 5.997.06 11.9 1.627 17.173 4.52 36.748 26.506 0 54.821 0 82.232 0 11.748 3.614 39.46-26.81 30.123a45.177 45.177 0 0 0-14.157-2.11c-77.414-2.107-93.078-1.505-90.366 81.934 2.41 98.5 0 196.698 0 295.198 0 25.905-8.133 31.628-32.834 31.628-84.34 0-84.34 0-84.34-83.74v-406.65c0-25.304 7.228-34.642 32.53-32.232a333.451 333.451 0 0 0 57.534 0c20.784-.903 31.326 4.218 27.41 34.34Zm973.85 884.991c30.632-32.923 76.81-46.78 120.486-36.147 22.592 2.711 36.75 12.05 25.003 37.954v3.615c-5.723 23.193-5.12 52.111-18.977 68.076-13.856 15.965-44.58 0-67.775 2.41-45.785 2.711-56.93 12.049-56.93 58.437v319.597c0 22.893-5.121 30.122-30.122 30.122-87.355 0-87.355 0-87.355-84.342v-395.204c0-35.544 10.543-46.689 44.279-41.87a201.684 201.684 0 0 0 46.69 0c19.278-.903 29.218 6.025 24.7 37.352Zm621.115-655.46V897.56c0 21.689-5.72 28.616-28.012 30.123-90.367 0-90.367 2.109-90.367-85.848V439.702c0-25.906 5.121-35.244 33.436-34.942 83.74 0 83.74 0 83.74 84.643l1.206 178.324Zm-418.093 875.05v-223.205c0-23.495 3.916-33.737 30.122-33.435 84.343 0 84.343 0 84.343 84.04v406.35c0 22.29-4.219 30.122-30.122 30.122-86.45 0-86.45 1.506-86.45-85.849l2.107-178.022Zm359.658-1313.63c58.438 0 58.738 0 58.738 60.244v32.231c0 31.93-24.399 24.098-38.255 20.785-26.206-6.025-62.954 23.495-78.015-20.483a1361.658 377.315 0 0 1 0-32.231c-.603-60.546-.603-60.546 57.532-60.546Zm-244.59 938.91c0 56.63 0 56.63-70.79 56.63-44.278 0-44.278 0-44.278-68.98 0-43.677 0-43.677 72.896-43.677 42.171.301 42.171.301 42.171 56.027Z" fill="#080808"/></g></svg>