<?xml version="1.0" standalone="no"?>
<!DOCTYPE svg PUBLIC "-//W3C//DTD SVG 20010904//EN"
 "http://www.w3.org/TR/2001/REC-SVG-20010904/DTD/svg10.dtd">
<svg version="1.0" xmlns="http://www.w3.org/2000/svg"
 width="700.000000pt" height="700.000000pt" viewBox="0 0 700.000000 700.000000"
 preserveAspectRatio="xMidYMid meet">
<metadata>
Created by potrace 1.14, written by Peter Selinger 2001-2017
</metadata>
<g transform="translate(0.000000,700.000000) scale(0.100000,-0.100000)"
fill="#000000" stroke="none">
<path d="M2010 6978 c-36 -5 -108 -24 -161 -42 -324 -110 -563 -387 -615 -710
-3 -21 -8 -48 -10 -60 -32 -152 -19 -629 17 -652 5 -3 9 -12 9 -20 0 -9 11
-30 25 -49 81 -105 249 -144 371 -85 56 28 113 86 144 147 26 52 27 57 33 423
4 175 6 201 27 253 59 148 191 222 345 194 75 -13 129 -39 365 -176 118 -68
231 -133 250 -143 19 -11 94 -54 165 -96 72 -41 146 -84 165 -95 67 -37 1025
-590 1080 -622 30 -19 206 -120 390 -225 184 -106 360 -209 390 -228 226 -148
258 -370 78 -538 -32 -31 -133 -104 -142 -104 -3 0 -29 -14 -58 -32 -29 -17
-82 -48 -118 -68 -75 -42 -46 -26 -436 -250 -492 -283 -508 -292 -546 -316
-21 -13 -39 -24 -41 -24 -4 0 -586 -334 -627 -359 -8 -5 -89 -52 -178 -103
-242 -138 -294 -201 -288 -354 7 -171 129 -287 302 -288 85 0 87 0 429 198
471 273 710 411 879 508 84 48 130 68 154 68 33 0 119 -46 437 -234 38 -22 74
-43 78 -45 32 -13 158 -97 184 -121 81 -77 111 -214 72 -330 -33 -95 -77 -136
-267 -245 -92 -53 -174 -100 -182 -105 -57 -34 -153 -90 -155 -90 -2 0 -63
-36 -138 -79 -74 -43 -206 -120 -293 -171 -88 -50 -166 -95 -174 -101 -36 -22
-222 -129 -225 -129 -2 0 -32 -17 -66 -38 -35 -22 -84 -50 -109 -64 -25 -14
-160 -92 -300 -173 -140 -81 -275 -159 -300 -173 -40 -22 -515 -295 -565 -324
-123 -72 -200 -97 -287 -93 -155 8 -273 132 -291 305 -4 30 -7 770 -8 1645
l-2 1590 26 51 c97 192 321 248 509 127 24 -15 52 -33 63 -39 11 -6 86 -50
166 -97 81 -47 168 -98 195 -113 27 -15 116 -65 198 -112 82 -47 167 -92 190
-99 101 -35 223 -4 303 77 88 89 110 212 58 328 -40 90 -88 130 -295 244 -25
14 -146 84 -270 155 -124 72 -243 141 -265 154 -156 90 -302 143 -451 164 -50
8 -208 8 -242 1 -15 -3 -41 -8 -58 -11 -158 -25 -361 -136 -478 -259 -133
-140 -227 -342 -254 -543 -12 -90 -15 -392 -15 -1668 0 -1618 1 -1680 30
-1795 107 -420 458 -704 884 -715 189 -4 399 56 574 165 33 21 137 82 230 135
94 54 256 147 360 208 105 60 210 121 235 135 49 27 680 390 930 535 85 49
171 98 190 109 81 46 182 105 281 165 59 34 112 63 118 63 6 0 11 5 11 10 0 6
4 10 9 10 10 0 265 148 330 192 132 89 237 207 308 343 32 64 71 161 78 195 1
3 5 25 9 50 5 25 10 54 12 65 3 11 5 63 5 115 2 196 -51 368 -164 535 -97 143
-226 246 -487 388 -78 42 -102 65 -90 87 5 10 42 36 83 57 176 96 281 169 377
263 107 105 141 150 200 268 144 290 118 632 -69 902 -115 165 -240 265 -551
438 -25 14 -182 105 -350 202 -608 352 -896 518 -945 545 -27 15 -54 31 -60
35 -5 5 -140 84 -300 176 -277 160 -395 228 -585 334 -47 26 -102 57 -122 68
-186 105 -269 141 -379 167 -86 19 -246 26 -339 13z"/>
</g>
</svg>
